<svg xmlns="http://www.w3.org/2000/svg" version="1.1" xmlns:xlink="http://www.w3.org/1999/xlink" width="1000" height="1000"><g clip-path="url(#SvgjsClipPath1281)"><rect width="1000" height="1000" fill="#000000"></rect><g transform="matrix(3.8297872340425534,0,0,3.8297872340425534,50,145.74468085106383)"><svg xmlns="http://www.w3.org/2000/svg" version="1.1" xmlns:xlink="http://www.w3.org/1999/xlink" width="235" height="185"><svg width="235" height="185" viewBox="0 0 235 185" fill="none" xmlns="http://www.w3.org/2000/svg">
<path d="M109.001 139.001C109.001 132.374 114.374 127.001 121.001 127.001H223.001C229.628 127.001 235.001 132.374 235.001 139.001V158.001C235.001 164.628 229.628 170.001 223.001 170.001H121.001C114.374 170.001 109.001 164.628 109.001 158.001V139.001Z" fill="#FFED00"></path>
<path d="M9.84277 152.981C9.84277 149.29 10.9023 145.804 13.0215 142.522C15.209 139.173 18.0801 135.892 21.6348 132.679C25.1895 129.397 29.2568 126.082 33.8369 122.732C38.4854 119.383 43.2705 115.76 48.1924 111.863C53.1143 107.967 58.002 103.763 62.8555 99.251C67.7773 94.6709 72.2549 89.5439 76.2881 83.8701C85.4482 71.1553 90.9512 57.0391 92.7969 41.5215C71.6055 43.4355 57.4551 45.3838 50.3457 47.3662C43.2363 49.2803 37.8701 51.5361 34.2471 54.1338C30.6924 56.7314 28.915 59.6367 28.915 62.8496C28.915 66.0625 29.1543 68.6943 29.6328 70.7451C30.1797 72.7275 30.7607 74.5391 31.376 76.1797C31.9912 77.8203 32.5381 79.29 33.0166 80.5889C33.5635 81.8877 33.8369 83.0498 33.8369 84.0752C33.8369 85.9209 31.5127 87.9375 26.8643 90.125C22.626 92.1074 19.5156 93.0986 17.5332 93.0986C15.6191 93.0986 13.7734 92.415 11.9961 91.0479C10.2188 89.6123 8.47559 87.7666 6.7666 85.5107C2.59668 79.9736 0.511719 74.6074 0.511719 69.4121C0.511719 64.2168 1.81055 59.8076 4.4082 56.1846C7.00586 52.5615 10.4922 49.417 14.8672 46.751C19.3105 44.085 24.5059 41.8633 30.4531 40.0859C36.4004 38.3086 42.7236 36.8047 49.4229 35.5742C56.1221 34.3438 62.9922 33.3525 70.0332 32.6006C77.1426 31.8486 84.0811 31.1992 90.8486 30.6523C97.6162 30.0371 104.008 29.4561 110.023 28.9092C116.107 28.3623 121.474 27.7129 126.122 26.9609C136.171 25.3203 141.469 23.1328 142.016 20.3984C142.562 17.6641 143.314 15.1348 144.271 12.8105C145.229 10.418 146.356 8.29883 147.655 6.45312C150.526 2.35156 153.637 0.300781 156.986 0.300781C160.336 0.300781 163.07 1.97559 165.189 5.3252C167.24 8.53809 168.266 11.9561 168.266 15.5791C168.266 19.1338 167.445 21.9707 165.805 24.0898C164.164 26.209 161.874 28.0889 158.935 29.7295C156.063 31.3018 152.611 32.6689 148.578 33.8311C144.545 34.9932 140.17 35.9844 135.453 36.8047C128.002 38.1035 117.611 39.334 104.281 40.4961C104.418 43.5039 104.486 46.4092 104.486 49.2119C104.486 51.9463 104.418 55.3643 104.281 59.4658C104.213 63.499 103.905 68.5576 103.358 74.6416C102.88 80.7256 102.23 86.7754 101.41 92.791C100.658 98.8066 99.8037 104.446 98.8467 109.71C96.9326 120.647 95.0186 128.372 93.1045 132.884C91.2588 137.396 89.0713 141.736 86.542 145.906C84.0127 150.076 81.21 154.041 78.1338 157.801C75.126 161.561 71.9131 165.081 68.4951 168.362C65.0771 171.575 61.5908 174.378 58.0361 176.771C50.5166 181.897 43.7148 184.461 37.6309 184.461C31.6152 184.461 25.4629 181.009 19.1738 174.104C12.9531 167.269 9.84277 160.228 9.84277 152.981Z" fill="#FFF8F8"></path>
<path d="M146.397 55.536C149.284 55.8613 151.907 56.7356 154.266 58.159C156.665 59.5416 158.536 61.209 159.878 63.161C161.22 65.113 161.891 67.065 161.891 69.017C161.891 71.945 161.139 75.056 159.634 78.35C158.129 81.644 156.035 84.4093 153.351 86.646C150.667 88.8826 147.678 90.001 144.384 90.001C142.757 90.001 141.029 89.4113 139.199 88.232C137.369 87.012 135.824 85.548 134.563 83.84C133.343 82.0913 132.733 80.546 132.733 79.204C132.733 76.7233 133.038 74.1816 133.648 71.579C134.258 68.9356 135.193 66.3736 136.454 63.893C137.633 63.2423 138.813 62.917 139.992 62.917C140.521 62.917 141.009 62.978 141.456 63.1C141.293 62.612 141.212 62.0426 141.212 61.392C141.212 60.0906 141.659 58.9113 142.554 57.854C143.489 56.7966 144.77 56.024 146.397 55.536ZM142.188 83.047C145.563 81.9083 148.186 79.9563 150.057 77.191C151.928 74.4256 153.168 71.1316 153.778 67.309C151.948 66.0076 149.467 65.357 146.336 65.357C145.563 65.357 144.974 65.3773 144.567 65.418C145.014 66.2313 145.238 67.1463 145.238 68.163C144.181 69.8303 143.367 71.6806 142.798 73.714C142.229 75.7066 141.944 77.7196 141.944 79.753C141.944 80.973 142.025 82.071 142.188 83.047Z" fill="#FFF8F8"></path>
<path d="M185.909 56.634C188.065 56.634 189.976 57.1423 191.643 58.159C193.311 59.1756 194.592 60.5786 195.486 62.368C196.422 64.1166 196.889 66.089 196.889 68.285C196.889 71.5383 195.954 74.873 194.083 78.289C192.253 81.6643 189.834 84.4703 186.824 86.707C183.856 88.903 180.765 90.001 177.552 90.001C176.17 90.001 174.787 89.452 173.404 88.354C172.916 90.3873 172.53 92.4613 172.245 94.576C172.001 96.7313 171.859 97.992 171.818 98.358C171.493 101.123 171.168 103.116 170.842 104.336C170.558 105.556 170.09 106.166 169.439 106.166C168.382 106.166 167.203 105.82 165.901 105.129C164.641 104.438 163.563 103.604 162.668 102.628C161.733 101.693 161.265 100.879 161.265 100.188C161.265 99.4153 161.611 97.7073 162.302 95.064C162.994 92.4206 164.051 88.598 165.474 83.596C166.735 79.1226 167.711 75.605 168.402 73.043C169.094 70.481 169.439 68.8543 169.439 68.163C169.439 67.8376 169.256 67.5123 168.89 67.187C168.565 66.821 168.016 66.3126 167.243 65.662C166.389 64.9706 165.759 64.4216 165.352 64.015C164.946 63.6083 164.742 63.1813 164.742 62.734C164.742 61.88 165.129 60.8836 165.901 59.745C166.715 58.6063 167.65 57.6303 168.707 56.817C169.805 56.0036 170.741 55.597 171.513 55.597C172.693 55.597 174.035 56.2476 175.539 57.549C177.044 58.8503 178.122 60.1516 178.772 61.453L181.151 57.427C182.737 56.8983 184.323 56.634 185.909 56.634ZM177.552 82.193C178.854 82.193 180.277 81.522 181.822 80.18C183.368 78.7973 184.669 77.1096 185.726 75.117C186.784 73.0836 187.312 71.152 187.312 69.322C187.312 67.98 186.987 66.943 186.336 66.211C185.686 65.479 184.75 65.113 183.53 65.113C182.107 65.113 180.806 65.9263 179.626 67.553C178.488 69.139 177.573 71.091 176.881 73.409C176.231 75.727 175.905 77.862 175.905 79.814C175.905 80.5866 176.048 81.1763 176.332 81.583C176.658 81.9896 177.064 82.193 177.552 82.193Z" fill="#FFF8F8"></path>
<path d="M117.345 156.725C117.345 155.045 118.017 153.673 119.361 152.609C120.705 151.545 122.161 151.013 123.729 151.013C125.353 151.013 126.165 151.713 126.165 153.113C126.165 153.729 125.941 154.345 125.493 154.961C125.101 155.577 124.653 155.885 124.149 155.885C123.701 155.885 123.477 155.717 123.477 155.381C123.477 154.989 123.645 154.625 123.981 154.289C124.373 153.953 124.569 153.617 124.569 153.281C124.569 152.329 124.121 151.853 123.225 151.853C122.329 151.853 121.461 152.273 120.621 153.113C119.837 153.897 119.445 154.849 119.445 155.969C119.445 157.033 119.725 157.929 120.285 158.657C120.845 159.385 121.713 159.749 122.889 159.749C124.121 159.749 125.157 159.245 125.997 158.237C126.893 157.173 127.565 155.913 128.013 154.457C128.461 152.945 128.937 151.433 129.441 149.921C130.001 148.409 130.813 147.149 131.877 146.141C132.997 145.077 134.201 144.545 135.489 144.545C136.777 144.545 137.785 144.769 138.513 145.217C139.241 145.609 139.605 146.141 139.605 146.813C139.605 147.485 139.325 148.129 138.765 148.745C138.261 149.361 137.701 149.669 137.085 149.669C136.469 149.669 136.133 149.529 136.077 149.249C136.077 148.801 136.385 148.409 137.001 148.073C137.337 147.961 137.505 147.569 137.505 146.897C137.505 146.001 136.889 145.553 135.657 145.553C134.425 145.553 133.389 146.365 132.549 147.989C131.709 149.557 131.065 151.293 130.617 153.197C130.225 155.045 129.329 156.781 127.929 158.405C126.529 159.973 124.653 160.757 122.301 160.757C120.845 160.757 119.697 160.421 118.857 159.749C118.017 159.077 117.569 158.405 117.513 157.733L117.345 156.725Z" fill="black"></path>
<path d="M154.835 132.617C155.563 131.833 156.207 131.441 156.767 131.441C157.383 131.441 157.691 131.609 157.691 131.945V132.197C157.691 132.533 157.215 133.121 156.263 133.961C155.367 134.745 153.155 137.237 149.627 141.437H156.599C157.271 141.437 157.607 141.605 157.607 141.941C157.607 142.389 156.935 142.613 155.591 142.613H148.619C142.235 150.229 139.043 154.877 139.043 156.557C139.043 157.789 139.715 158.405 141.059 158.405C141.507 158.405 142.235 158.265 143.243 157.985C145.035 157.257 146.351 156.501 147.191 155.717C148.031 154.877 148.535 154.457 148.703 154.457C148.927 154.457 149.039 154.625 149.039 154.961C149.039 155.297 148.535 155.913 147.527 156.809C146.519 157.649 145.259 158.405 143.747 159.077C142.235 159.749 140.863 160.085 139.631 160.085C137.783 160.085 136.859 159.133 136.859 157.229C136.859 155.325 140.079 150.425 146.519 142.529C144.111 142.529 142.459 142.529 141.563 142.529C140.723 142.473 140.303 142.305 140.303 142.025C140.303 141.689 140.779 141.465 141.731 141.353H147.527C151.671 136.313 154.107 133.401 154.835 132.617Z" fill="black"></path>
<path d="M159.371 146.225C159.371 148.521 160.295 149.893 162.143 150.341C162.199 150.061 162.227 149.501 162.227 148.661C162.227 147.765 162.003 147.037 161.555 146.477C161.107 145.861 160.631 145.553 160.127 145.553C159.623 145.553 159.371 145.777 159.371 146.225ZM161.807 151.601C159.063 151.321 157.607 149.809 157.439 147.065C155.535 147.121 153.743 148.185 152.063 150.257C150.439 152.273 149.627 154.205 149.627 156.053C149.627 158.125 150.719 159.161 152.903 159.161C154.359 159.161 156.039 158.433 157.943 156.977C159.847 155.465 161.135 153.673 161.807 151.601ZM146.771 156.725C146.771 154.485 147.947 152.105 150.299 149.585C152.707 147.065 155.143 145.777 157.607 145.721C158.111 144.657 158.951 144.125 160.127 144.125C161.359 144.125 162.311 144.489 162.983 145.217C163.711 145.889 164.075 146.785 164.075 147.905C164.075 148.969 163.963 149.837 163.739 150.509C165.363 150.509 167.183 150.117 169.199 149.333C171.215 148.549 172.419 147.961 172.811 147.569L173.231 147.989C173.231 148.101 173.007 148.353 172.559 148.745C172.111 149.137 170.907 149.697 168.947 150.425C166.987 151.153 165.139 151.545 163.403 151.601C162.507 153.953 160.939 156.025 158.699 157.817C156.459 159.553 154.135 160.421 151.727 160.421C148.423 160.421 146.771 159.189 146.771 156.725Z" fill="black"></path>
<path d="M179.269 152.525C179.773 152.525 180.417 152.301 181.201 151.853C181.481 151.853 181.621 151.965 181.621 152.189C181.621 152.357 181.537 152.497 181.369 152.609C181.257 152.721 180.753 152.917 179.857 153.197C178.961 153.477 178.233 153.617 177.673 153.617C175.825 153.617 174.901 153.029 174.901 151.853C174.901 151.405 175.013 150.929 175.237 150.425C175.517 149.921 175.657 149.585 175.657 149.417C175.657 149.249 175.601 149.165 175.489 149.165C174.369 149.557 172.745 150.537 170.617 152.105L164.653 159.581C164.205 160.141 163.785 160.421 163.393 160.421C162.945 160.421 162.721 160.281 162.721 160.001C162.721 159.721 162.917 159.273 163.309 158.657L168.601 152.021C168.993 151.517 169.721 150.565 170.785 149.165C171.849 147.765 172.465 146.925 172.633 146.645C172.857 146.365 173.249 146.225 173.809 146.225C174.425 146.225 174.733 146.337 174.733 146.561C174.733 146.785 174.677 146.953 174.565 147.065L173.389 148.745C173.221 148.969 173.025 149.193 172.801 149.417C173.305 149.305 175.321 148.297 178.849 146.393C178.961 146.337 179.157 146.309 179.437 146.309C179.717 146.309 179.857 146.393 179.857 146.561C179.857 146.673 179.801 146.813 179.689 146.981C179.633 147.093 179.353 147.457 178.849 148.073C177.841 149.305 177.337 150.229 177.337 150.845C177.337 151.965 177.981 152.525 179.269 152.525Z" fill="black"></path>
<path d="M192.156 138.329C191.652 138.889 191.4 139.421 191.4 139.925C191.4 140.653 191.792 141.017 192.576 141.017C192.968 141.017 193.444 140.793 194.004 140.345C194.62 139.897 194.928 139.421 194.928 138.917C194.928 138.413 194.788 138.049 194.508 137.825C194.284 137.545 193.948 137.405 193.5 137.405C193.108 137.405 192.66 137.713 192.156 138.329ZM179.556 157.901C179.556 158.517 179.948 158.825 180.732 158.825C182.356 158.825 184.652 157.481 187.62 154.793C187.788 154.569 187.956 154.457 188.124 154.457C188.348 154.457 188.46 154.597 188.46 154.877C188.46 155.549 187.312 156.613 185.016 158.069C182.776 159.525 180.76 160.253 178.968 160.253C177.736 160.253 177.12 159.609 177.12 158.321C177.12 157.593 177.484 156.725 178.212 155.717C178.492 155.381 178.856 154.961 179.304 154.457C179.752 153.897 180.144 153.393 180.48 152.945C180.872 152.497 181.628 151.629 182.748 150.341C183.868 148.997 184.736 147.933 185.352 147.149C186.024 146.365 186.472 145.889 186.696 145.721C186.92 145.497 187.172 145.385 187.452 145.385C187.788 145.385 188.04 145.469 188.208 145.637C188.432 145.805 188.544 146.001 188.544 146.225C188.544 146.449 188.376 146.729 188.04 147.065L181.74 154.205C180.284 155.773 179.556 157.005 179.556 157.901Z" fill="black"></path>
<path d="M189.685 155.633V156.221C195.957 153.813 199.093 151.405 199.093 148.997C199.093 147.765 198.309 147.149 196.741 147.149C195.229 147.149 193.661 148.101 192.037 150.005C190.469 151.909 189.685 153.785 189.685 155.633ZM201.193 148.325C201.193 151.685 197.441 154.597 189.937 157.061C190.385 158.349 191.617 158.993 193.633 158.993C197.049 158.993 200.297 157.593 203.377 154.793C203.545 154.569 203.713 154.457 203.881 154.457C204.105 154.457 204.217 154.653 204.217 155.045C204.217 155.381 203.713 155.969 202.705 156.809C201.697 157.649 200.269 158.461 198.421 159.245C196.573 160.029 194.753 160.421 192.961 160.421C189.153 160.421 187.249 159.021 187.249 156.221C187.249 153.925 188.397 151.601 190.693 149.249C193.045 146.897 195.565 145.721 198.253 145.721C200.213 145.721 201.193 146.589 201.193 148.325Z" fill="black"></path>
<path d="M202.329 156.725C202.329 155.045 203.001 153.673 204.345 152.609C205.689 151.545 207.145 151.013 208.713 151.013C210.337 151.013 211.149 151.713 211.149 153.113C211.149 153.729 210.925 154.345 210.477 154.961C210.085 155.577 209.637 155.885 209.133 155.885C208.685 155.885 208.461 155.717 208.461 155.381C208.461 154.989 208.629 154.625 208.965 154.289C209.357 153.953 209.553 153.617 209.553 153.281C209.553 152.329 209.105 151.853 208.209 151.853C207.313 151.853 206.445 152.273 205.605 153.113C204.821 153.897 204.429 154.849 204.429 155.969C204.429 157.033 204.709 157.929 205.269 158.657C205.829 159.385 206.697 159.749 207.873 159.749C209.105 159.749 210.141 159.245 210.981 158.237C211.877 157.173 212.549 155.913 212.997 154.457C213.445 152.945 213.921 151.433 214.425 149.921C214.985 148.409 215.797 147.149 216.861 146.141C217.981 145.077 219.185 144.545 220.473 144.545C221.761 144.545 222.769 144.769 223.497 145.217C224.225 145.609 224.589 146.141 224.589 146.813C224.589 147.485 224.309 148.129 223.749 148.745C223.245 149.361 222.685 149.669 222.069 149.669C221.453 149.669 221.117 149.529 221.061 149.249C221.061 148.801 221.369 148.409 221.985 148.073C222.321 147.961 222.489 147.569 222.489 146.897C222.489 146.001 221.873 145.553 220.641 145.553C219.409 145.553 218.373 146.365 217.533 147.989C216.693 149.557 216.049 151.293 215.601 153.197C215.209 155.045 214.313 156.781 212.913 158.405C211.513 159.973 209.637 160.757 207.285 160.757C205.829 160.757 204.681 160.421 203.841 159.749C203.001 159.077 202.553 158.405 202.497 157.733L202.329 156.725Z" fill="black"></path>
</svg></svg></g></g><defs><clipPath id="SvgjsClipPath1281"><rect width="1000" height="1000" x="0" y="0" rx="0" ry="0"></rect></clipPath></defs></svg>